# xmcd
#
# Track frame offsets: 
#        150
#        25558
#        48316
#        71032
#        95394
#        113838
#        140022
#        171742
#        203651
#        226688
#
# Disc length: 3297 seconds
#
# Revision: 0
# Processed by: cddbd v1.5.2PL0 Copyright (c) Steve Scherf et al.
# Submitted via: ExactAudioCopy v1.0b3
#
DISCID=840cdf0a
DTITLE=Son Tuyen - Tinh La Gi
DYEAR=1995
DGENRE=
TTITLE0=Tinh la gi
TTITLE1=Em di tren co non
TTITLE2=Tat nuoc dau dinh
TTITLE3=Dung trach la dieu bong 1
TTITLE4=Chiec ao que huong
TTITLE5=Ru con thuyen mong
TTITLE6=Dung trach la dieu bong 2
TTITLE7=Hue tinh yeu cua toi
TTITLE8=Ly ru con
TTITLE9=Nhong nhong nhong
EXTD=
EXTT0=
EXTT1=
EXTT2=
EXTT3=
EXTT4=
EXTT5=
EXTT6=
EXTT7=
EXTT8=
EXTT9=
PLAYORDER=
